<svg xmlns="http://www.w3.org/2000/svg" id="Layer_2" viewBox="0 0 1920 1080"><defs><style>.cls-1{fill:#064f94}.cls-2{fill:#fff}</style></defs><g id="Layer_1-2"><path d="M0 0h1920v1080H0z" class="cls-2"/><path d="M336.33 706.11h-43.62c5.52-52.73 5.24-126.45 83.93-165.11-48.87 61.3-40.31 111.55-40.31 165.11Z" class="cls-2"/><path d="M594.77 516.15C580.01 638.73 431.04 630.74 369.74 627.7c82.28-17.67 171.19-53.29 168.7-116.79-6.35-59.37-91.66-124.25-246.56-112.66 120.11-55.49 318.97-15.69 302.89 117.9Z" class="cls-2"/><path d="M273.22 332.44h378.41c22.7 0 41.25 18.55 41.25 41.25v332.73c0 22.7-18.55 41.25-41.25 41.25H273.22c-22.7 0-41.25-18.55-41.25-41.25V373.69c0-22.7 18.55-41.25 41.25-41.25Zm19.1 374.25h43.74c0-53.7-8.58-104.08 40.41-165.53-78.89 38.75-78.62 112.66-84.15 165.53Zm-.83-308.65c155.29-11.63 240.83 53.43 247.2 112.94 2.49 63.67-86.64 99.38-169.13 117.09 61.45 3.04 210.81 11.06 225.6-111.83 16.12-133.93-183.25-173.84-303.67-118.2Z" style="fill:#18204e;fill-rule:evenodd"/><path d="m849 487.18-15.78 56.19c-2.49 8.03-3.6 13.56-3.6 16.89 0 4.71 1.38 8.03 4.43 10.52 3.04 2.21 9.69 3.6 20.21 3.88l-1.94 4.98h-98.27l1.66-4.98c8.3-.28 14.12-1.11 17.72-2.49 3.32-1.66 6.37-4.15 8.58-7.75 1.66-2.21 4.15-9.41 7.47-21.04l36.82-128.44c2.49-8.58 3.88-14.67 3.88-18.27 0-3.88-1.66-6.92-4.98-9.69-3.32-2.49-9.13-3.88-17.72-4.15l1.66-4.98h80c22.15 0 37.92 2.77 47.61 8.3 14.95 8.58 22.42 21.87 22.42 39.31s-7.47 31.83-22.42 44.84c-14.95 12.73-34.88 19.38-60.07 19.38-7.75 0-16.89-.83-27.68-2.49Zm3.32-11.63c6.37.83 11.63 1.11 15.78 1.11 13.56 0 24.08-6.09 31.83-18.82 7.75-12.46 11.63-25.47 11.63-39.03 0-9.13-2.49-16.33-7.47-21.59-4.98-4.98-11.9-7.47-20.76-7.47-1.94 0-4.15 0-6.92.28l-24.08 85.54Zm174.67-33.77-26.57 83.6c17.99-40.69 31.56-65.88 40.69-75.29 5.26-5.54 10.8-8.3 16.89-8.3 3.88 0 7.2 1.38 9.69 4.43 2.49 3.04 3.88 7.2 3.88 12.73 0 9.69-2.21 17.72-6.92 24.36-2.77 4.15-6.09 6.37-9.69 6.37-3.88 0-6.92-1.94-8.86-5.54-1.94-3.6-3.32-5.81-4.15-6.37-.55-.83-1.38-1.11-2.21-1.11-1.11 0-2.21.28-3.04 1.11-2.21 1.11-4.98 3.88-8.58 8.58-3.32 4.71-7.75 12.46-12.73 23.25-4.98 10.8-8.86 20.21-11.63 27.68-2.77 7.47-7.2 21.59-13.29 42.35h-36.26l28.24-98.55c1.94-7.2 2.77-12.18 2.77-14.39 0-2.77-.55-4.98-1.66-6.37-1.11-1.38-2.77-2.49-4.71-3.32-2.21-.55-6.37-1.11-12.73-1.11l1.11-4.15 49.83-9.97h9.97Zm283.18-36.26-12.46 40.41h16.89l-5.26 17.16h-16.89l-27.13 87.2c-1.66 5.54-2.49 9.69-2.49 12.46 0 .83.55 1.66 1.38 2.49.83.55 1.94.83 2.77.83 1.94 0 3.6-.55 5.54-1.94 4.43-3.6 9.69-9.69 15.78-18.27l5.26 3.32c-6.92 11.9-14.39 20.48-22.7 26.02-8.3 5.54-16.33 8.58-24.36 8.58-6.64 0-11.9-1.66-15.78-5.26-3.6-3.32-5.54-7.47-5.54-12.73 0-5.81 1.38-13.29 4.15-22.15l25.19-80.55h-19.1l2.77-11.07c12.18-4.71 22.7-10.24 31.56-16.33 8.86-6.37 19.65-16.33 32.39-30.17h8.03Zm63.39-32.39c6.09 0 11.35 2.21 15.78 6.37 4.15 4.43 6.37 9.41 6.37 15.5s-2.21 11.35-6.64 15.5c-4.15 4.43-9.41 6.64-15.5 6.64s-11.07-2.21-15.22-6.64c-4.43-4.15-6.64-9.41-6.64-15.5s2.21-11.07 6.37-15.5c4.43-4.15 9.41-6.37 15.5-6.37Zm12.18 68.65-32.94 104.64c-1.66 6.09-2.77 9.97-2.77 11.9 0 1.11.55 2.21 1.38 3.04.83 1.11 1.94 1.66 2.77 1.66 1.66 0 3.32-.83 4.98-2.49 4.43-3.88 9.69-10.8 15.78-20.76l5.26 3.04c-15.22 27.13-31.28 40.97-48.17 40.97-6.64 0-11.63-1.94-15.5-5.54-3.88-3.6-5.81-8.03-5.81-13.56 0-3.6.83-8.3 2.77-13.84l22.7-71.14c2.21-6.92 3.32-12.18 3.32-15.5 0-2.21-1.11-4.15-3.04-5.81-1.94-1.66-4.71-2.49-8.3-2.49h-5.54l1.66-6.09 52.32-8.03h9.13Zm102.7-68.65-40.41 140.34 33.49-30.73 10.8-10.24c3.32-3.32 5.54-6.37 6.92-8.58.83-1.66 1.11-3.04 1.11-4.15 0-2.21-.83-3.88-2.77-5.26s-6.64-2.21-13.84-2.77l1.11-5.81h60.62l-1.11 5.81c-7.2 1.66-13.01 3.6-17.72 5.81-3.32 1.66-7.75 4.43-12.73 8.3-7.47 5.81-13.01 10.24-16.33 13.56l-6.37 6.09 8.86 40.14c3.6 15.5 6.09 24.64 7.75 27.13 1.11 1.38 2.49 1.94 3.88 1.94 3.6 0 7.75-4.15 12.46-12.73.55-1.11 1.66-2.77 2.77-4.98l5.54 3.6c-7.47 14.67-15.78 26.02-25.19 33.49-6.37 5.26-11.9 7.75-16.89 7.75-5.26 0-9.41-1.94-12.73-5.54-3.32-3.6-6.64-13.01-9.97-28.51l-7.47-33.77-16.06 14.39-14.67 51.21h-38.48l49.27-168.03c1.94-7.2 3.04-11.9 3.04-14.39 0-2.21-.55-4.15-1.38-5.54-.83-1.38-1.94-2.49-3.32-3.04-1.66-.83-4.43-1.11-8.86-1.11l1.11-5.54 49-8.86h8.58Zm199.58 70.59-29.07 99.1-3.04 11.9c-.28 1.38-.55 2.49-.55 3.32 0 1.11.55 2.21 1.38 3.04.83.83 1.66 1.38 2.49 1.38 1.94 0 4.71-1.66 8.3-4.71 1.66-1.38 4.98-5.81 10.8-13.56l4.98 2.49c-6.92 13.01-14.39 22.15-22.42 28.24-8.03 5.81-16.61 8.86-25.74 8.86-5.54 0-9.97-1.66-12.73-4.43-3.04-2.77-4.43-6.64-4.43-11.07 0-3.88 1.66-10.8 4.71-21.31l3.6-12.18c-11.35 19.65-22.42 33.77-33.22 41.8-6.09 4.71-12.46 7.2-19.65 7.2-9.13 0-15.5-3.88-19.65-11.35-4.15-7.47-6.09-16.06-6.09-25.19 0-14.12 4.15-30.17 12.73-48.17 8.58-18.27 19.93-32.66 33.77-43.74 11.63-9.13 22.42-13.56 32.39-13.56 5.54 0 9.97 1.66 13.56 4.71 3.32 3.32 5.81 9.13 7.47 17.72l5.26-18.27 35.16-2.21Zm-47.61 28.51c0-8.03-1.38-13.84-3.88-17.44-1.66-2.49-4.15-3.6-7.2-3.6-3.32 0-6.37 1.38-9.69 4.43-6.64 6.09-13.84 18.55-21.87 37.37-7.75 18.55-11.63 34.88-11.63 48.44 0 5.26 1.11 9.13 2.77 11.35 1.66 2.21 3.6 3.6 5.81 3.6 4.43 0 8.86-2.77 13.56-7.75 6.64-7.47 12.46-16.33 17.72-26.85 9.69-18.55 14.39-35.16 14.39-49.55Zm-426.29-28.51-29.07 99.1-3.04 11.9c-.28 1.38-.55 2.49-.55 3.32 0 1.11.55 2.21 1.38 3.04.83.83 1.66 1.38 2.49 1.38 1.94 0 4.71-1.66 8.3-4.71 1.66-1.38 4.98-5.81 10.8-13.56l4.98 2.49c-6.92 13.01-14.39 22.15-22.42 28.24-8.03 5.81-16.61 8.86-25.74 8.86-5.54 0-9.69-1.66-12.73-4.43-3.04-2.77-4.43-6.64-4.43-11.07 0-3.88 1.66-10.8 4.71-21.31l3.6-12.18c-11.35 19.65-22.42 33.77-33.22 41.8-6.09 4.71-12.46 7.2-19.65 7.2-9.13 0-15.5-3.88-19.65-11.35-4.15-7.47-6.09-16.06-6.09-25.19 0-14.12 4.15-30.17 12.73-48.17 8.58-18.27 19.93-32.66 33.77-43.74 11.63-9.13 22.42-13.56 32.39-13.56 5.54 0 9.97 1.66 13.56 4.71 3.32 3.32 5.81 9.13 7.47 17.72l5.26-18.27 35.16-2.21Zm-47.61 28.51c0-8.03-1.38-13.84-3.88-17.44-1.66-2.49-4.15-3.6-7.2-3.6-3.32 0-6.37 1.38-9.69 4.43-6.64 6.09-13.84 18.55-21.87 37.37-7.75 18.55-11.63 34.88-11.63 48.44 0 5.26 1.11 9.13 2.77 11.35 1.66 2.21 3.6 3.6 5.81 3.6 4.43 0 8.86-2.77 13.56-7.75 6.64-7.47 12.46-16.33 17.72-26.85 9.69-18.55 14.39-35.16 14.39-49.55Zm9.13-99.93h45.67l-49.83 52.04h-13.29l17.44-52.04Z" style="fill:#18204e"/><path d="m1170.13 636.3-10.4 35.48c7.07-.09 11.67-.37 13.79-.83 3.46-.69 6.6-2.16 9.42-4.4 2.82-2.24 5.17-5.35 7.07-9.32h2.7l-10.74 37.07h-2.77c.46-2.4.69-4.32.69-5.75 0-2.86-.59-5.15-1.77-6.86-1.18-1.71-2.69-2.88-4.54-3.5-1.85-.62-6.93-1.03-15.24-1.21l-8.45 29.31-1.67 5.89c-.23 1.16-.35 2.29-.35 3.4 0 1.62.31 2.89.94 3.81.62.92 1.63 1.65 3.02 2.18 1.38.53 4.02.82 7.9.87l-.76 2.56h-46.91l.76-2.56c4.53 0 7.83-.84 9.91-2.53s3.95-5.37 5.61-11.05l16.77-57.52c1.75-6.05 2.68-9.93 2.77-11.64-.09-1.62-.83-2.99-2.22-4.12-1.38-1.13-4.23-1.79-8.52-1.97l.69-2.56h76.78l-6.31 24.81h-2.56c-.28-5.17-1.09-9.02-2.43-11.54-1.34-2.52-3.55-4.48-6.62-5.89-3.07-1.41-7.98-2.11-14.73-2.11h-11.85ZM1274.7 661.73l-13.44 46.08-1.38 5.61c-.14.69-.21 1.2-.21 1.52 0 .55.19 1.04.59 1.45.39.42.8.62 1.21.62.97 0 2.31-.74 4.02-2.22.69-.6 2.36-2.73 4.99-6.38l2.43 1.25c-3.28 6.01-6.78 10.38-10.5 13.13-3.72 2.75-7.72 4.12-12.02 4.12-2.63 0-4.64-.68-6.03-2.04-1.38-1.36-2.08-3.08-2.08-5.16 0-1.8.74-5.15 2.22-10.05l1.66-5.61c-5.36 9.19-10.51 15.71-15.45 19.54-2.87 2.22-5.91 3.33-9.15 3.33-4.25 0-7.32-1.74-9.22-5.23s-2.84-7.43-2.84-11.82c0-6.51 1.99-13.99 5.96-22.42 3.97-8.43 9.19-15.21 15.66-20.34 5.31-4.25 10.3-6.37 14.97-6.37 2.59 0 4.67.75 6.24 2.25 1.57 1.5 2.72 4.24 3.46 8.21l2.49-8.52 16.42-.97Zm-22.17 13.17c0-3.74-.58-6.45-1.73-8.11-.83-1.15-1.96-1.73-3.39-1.73s-2.91.69-4.43 2.08c-3.1 2.87-6.43 8.67-10.01 17.43-3.58 8.75-5.37 16.32-5.37 22.69 0 2.45.41 4.22 1.21 5.3s1.7 1.63 2.67 1.63c2.08 0 4.18-1.2 6.31-3.6 3.05-3.42 5.8-7.6 8.24-12.54 4.34-8.69 6.52-16.4 6.52-23.14ZM1330.97 708.3l2.08 1.87c-4.48 5.36-8.9 9.29-13.24 11.78-5.77 3.33-11.76 4.99-17.95 4.99-4.16 0-7.84-.89-11.05-2.67-3.21-1.78-5.58-4.27-7.1-7.48-1.53-3.21-2.29-6.5-2.29-9.88 0-7.58 2.05-15.03 6.17-22.35 4.11-7.32 9.54-13.12 16.28-17.39 6.75-4.27 13.37-6.41 19.89-6.41 5.22 0 9.15 1.16 11.78 3.46 2.63 2.31 3.95 5.17 3.95 8.59 0 3.1-1 5.73-2.98 7.9-1.99 2.17-4.21 3.26-6.65 3.26-2.13 0-3.89-.69-5.3-2.08s-2.11-3.03-2.11-4.92c0-2.49 1.25-4.67 3.74-6.51 1.71-1.29 2.56-2.43 2.56-3.4 0-.83-.34-1.5-1.04-2.01-.93-.74-2.13-1.11-3.6-1.11-3.88 0-7.53 1.57-10.95 4.71-4.53 4.16-7.99 9.42-10.39 15.8-2.4 6.37-3.6 12.43-3.6 18.15 0 4.53 1.22 8.14 3.67 10.85 2.45 2.7 5.36 4.05 8.73 4.05 2.96 0 6.16-.76 9.6-2.29 3.44-1.52 6.71-3.83 9.81-6.93ZM1376.85 660.76l-14.21 49.27c-.79 2.82-1.18 4.67-1.18 5.54 0 .51.21.98.62 1.42s.85.66 1.32.66c.78 0 1.57-.35 2.36-1.04 2.08-1.71 4.57-4.8 7.48-9.29l2.36 1.39c-6.97 12.15-14.39 18.22-22.24 18.22-3 0-5.4-.84-7.17-2.53-1.78-1.69-2.67-3.82-2.67-6.41 0-1.71.39-3.88 1.18-6.51l9.63-33.12c.93-3.19 1.39-5.59 1.39-7.21 0-1.02-.44-1.92-1.32-2.7-.88-.78-2.08-1.18-3.6-1.18-.69 0-1.52.02-2.49.07l.9-2.77 23.49-3.81h4.16Zm-4.3-31.88c2.86 0 5.28.99 7.24 2.98s2.94 4.39 2.94 7.21-.99 5.22-2.98 7.21c-1.99 1.99-4.39 2.98-7.21 2.98s-5.15-.99-7.14-2.98c-1.99-1.99-2.98-4.39-2.98-7.21s.98-5.22 2.95-7.21c1.96-1.99 4.35-2.98 7.17-2.98ZM1425 628.89l-22.94 78.03c-1.34 4.62-2.01 7.51-2.01 8.66 0 .6.19 1.11.59 1.52.39.41.82.62 1.28.62.83 0 1.62-.32 2.36-.97 2.22-1.8 4.69-4.85 7.42-9.15l2.7 1.25c-4.39 7.02-8.71 12.03-12.96 15.04-2.91 2.03-6.01 3.05-9.29 3.05-3.05 0-5.48-.82-7.28-2.46-1.8-1.64-2.7-3.61-2.7-5.92 0-1.71.56-4.46 1.67-8.24l18.71-63.89c1.01-3.51 1.52-5.84 1.52-7s-.49-1.99-1.45-2.63c-1.29-.92-3.26-1.32-5.89-1.18l.76-2.63 23.35-4.09h4.16ZM1455.7 660.76l-14.21 49.27c-.78 2.82-1.18 4.67-1.18 5.54 0 .51.21.98.62 1.42.41.44.85.66 1.32.66.78 0 1.57-.35 2.36-1.04 2.08-1.71 4.57-4.8 7.48-9.29l2.36 1.39c-6.98 12.15-14.39 18.22-22.25 18.22-3 0-5.39-.84-7.17-2.53-1.78-1.69-2.67-3.82-2.67-6.41 0-1.71.39-3.88 1.18-6.51l9.63-33.12c.92-3.19 1.38-5.59 1.38-7.21 0-1.02-.44-1.92-1.32-2.7-.88-.78-2.08-1.18-3.6-1.18-.69 0-1.52.02-2.49.07l.9-2.77 23.49-3.81h4.16Zm-4.3-31.88c2.86 0 5.28.99 7.24 2.98s2.95 4.39 2.95 7.21-1 5.22-2.98 7.21c-1.99 1.99-4.39 2.98-7.21 2.98s-5.15-.99-7.14-2.98c-1.99-1.99-2.98-4.39-2.98-7.21s.98-5.22 2.95-7.21c1.96-1.99 4.35-2.98 7.17-2.98ZM1499.64 643.86l-5.54 18.85h9.08l-2.43 7.97h-8.94l-11.57 40.19c-.74 2.49-1.11 4.39-1.11 5.68 0 .6.21 1.12.62 1.56s.88.66 1.38.66c.78 0 1.6-.32 2.43-.97 2.12-1.62 4.6-4.43 7.42-8.45l2.43 1.52c-3.19 5.54-6.7 9.61-10.53 12.2-3.84 2.59-7.6 3.88-11.3 3.88-3.14 0-5.58-.8-7.31-2.39-1.73-1.59-2.6-3.61-2.6-6.06 0-2.68.6-6.12 1.8-10.33l10.95-37.49H1465l1.39-5.13c5.91-2.17 10.9-4.71 14.97-7.62s8.96-7.6 14.69-14.07h3.6ZM1534.56 660.76l-14.21 49.27c-.78 2.82-1.18 4.67-1.18 5.54 0 .51.21.98.62 1.42.41.44.85.66 1.32.66.78 0 1.57-.35 2.36-1.04 2.08-1.71 4.57-4.8 7.48-9.29l2.36 1.39c-6.98 12.15-14.39 18.22-22.25 18.22-3 0-5.39-.84-7.17-2.53-1.78-1.69-2.67-3.82-2.67-6.41 0-1.71.39-3.88 1.18-6.51l9.63-33.12c.92-3.19 1.38-5.59 1.38-7.21 0-1.02-.44-1.92-1.32-2.7-.88-.78-2.08-1.18-3.6-1.18-.69 0-1.52.02-2.49.07l.9-2.77 23.49-3.81h4.16Zm-4.3-31.88c2.86 0 5.28.99 7.24 2.98s2.95 4.39 2.95 7.21-1 5.22-2.98 7.21c-1.99 1.99-4.39 2.98-7.21 2.98s-5.15-.99-7.14-2.98c-1.99-1.99-2.98-4.39-2.98-7.21s.98-5.22 2.95-7.21c1.96-1.99 4.35-2.98 7.17-2.98ZM1560 699.02c-.42 3-.62 5.48-.62 7.42 0 3.46 1.01 6.24 3.02 8.32s4.7 3.12 8.07 3.12 6.48-.78 9.74-2.36c3.26-1.57 7.03-4.32 11.33-8.25l2.08 1.87c-5.31 6.42-10.49 10.99-15.52 13.72s-10.6 4.09-16.7 4.09c-7.71 0-13.05-1.85-16.01-5.54s-4.43-7.97-4.43-12.82c0-7.58 2.21-15.15 6.62-22.73s10.42-13.65 18.02-18.22 15.23-6.86 22.9-6.86c3.88 0 6.81.92 8.8 2.77 1.99 1.85 2.98 4.18 2.98 7 0 3.37-.97 6.65-2.91 9.84-2.68 4.34-6.05 7.84-10.12 10.5-4.07 2.66-8.62 4.68-13.65 6.06-3.37.92-7.9 1.62-13.58 2.08Zm.62-3.6c4.06-.6 7.22-1.42 9.46-2.46 2.24-1.04 4.44-2.7 6.59-4.99s4.01-5.17 5.58-8.66c1.57-3.49 2.36-6.76 2.36-9.81 0-1.29-.36-2.31-1.07-3.05-.72-.74-1.63-1.11-2.74-1.11-2.22 0-4.71 1.55-7.48 4.64-5.08 5.64-9.31 14.11-12.68 25.43ZM1653.61 660.76l-3.05 21.41H1648c-.37-5.54-2.07-9.91-5.09-13.1-3.03-3.19-6.27-4.78-9.74-4.78-2.12 0-3.88.62-5.26 1.87-1.39 1.25-2.08 2.75-2.08 4.5 0 1.48.3 2.87.9 4.16.6 1.29 1.94 3.05 4.02 5.27 7.3 7.85 11.74 13.26 13.31 16.22a19.95 19.95 0 0 1 2.36 9.49c0 3.65-.93 7.1-2.77 10.36-1.85 3.26-4.61 5.87-8.28 7.83-3.67 1.96-7.5 2.94-11.47 2.94-2.68 0-5.98-.53-9.91-1.59-2.59-.74-4.53-1.11-5.82-1.11-1.16 0-2.05.17-2.7.52-.65.35-1.36 1.07-2.15 2.18h-2.56l3.4-23.08h2.22c1.62 5.59 3.13 9.58 4.54 11.95 1.41 2.38 3.29 4.27 5.65 5.68 2.36 1.41 4.62 2.11 6.79 2.11 2.54 0 4.64-.8 6.31-2.39 1.66-1.59 2.49-3.5 2.49-5.72s-.54-4.27-1.63-6.31c-1.09-2.03-3.59-5.2-7.52-9.49-5.41-5.87-8.96-10.4-10.67-13.58-1.2-2.31-1.8-4.94-1.8-7.9 0-4.99 1.81-9.15 5.44-12.47 3.63-3.33 8.72-4.99 15.28-4.99 2.87 0 6.38.51 10.53 1.52 2.08.51 3.74.76 4.99.76 1.8 0 3.26-.76 4.37-2.29h2.49Z" class="cls-1"/></g></svg>